<?xml version="1.0" encoding="iso-8859-1"?>
<!-- Generator: Adobe Illustrator 19.0.0, SVG Export Plug-In . SVG Version: 6.00 Build 0)  -->
<svg version="1.1" id="Capa_1" xmlns="http://www.w3.org/2000/svg" xmlns:xlink="http://www.w3.org/1999/xlink" x="0px" y="0px"
	 viewBox="0 0 512 512" style="enable-background:new 0 0 512 512;" xml:space="preserve">
<path style="fill:#FFC107;" d="M432.384,143.616c-4.165-4.164-10.917-4.164-15.083,0l-60.352,60.352
	c-4.164,4.165-4.164,10.917,0,15.083c21.187,20.463,54.951,19.876,75.413-1.311c19.962-20.668,19.962-53.435,0-74.102
	L432.384,143.616z"/>
<path style="fill:#607D8B;" d="M42.667,277.334c-5.891,0.003-10.669-4.771-10.672-10.662c-0.002-4.338,2.623-8.245,6.64-9.882
	l234.667-96c5.455-2.233,11.687,0.38,13.92,5.835c2.233,5.455-0.38,11.687-5.835,13.92l-234.667,96
	C45.433,277.069,44.056,277.337,42.667,277.334z"/>
<path style="fill:#546E7A;" d="M391.552,56.448l-32-32C343.938,8.745,322.689-0.059,300.544,0h-3.755
	c-46.082,0.024-83.432,37.374-83.456,83.456v3.755c-0.053,22.138,8.75,43.377,24.448,58.987l32,32
	c4.165,4.164,10.917,4.164,15.083,0L391.531,71.531C395.701,67.372,395.71,60.62,391.552,56.448z"/>
<path style="fill:#607D8B;" d="M160,469.334c-3.279,0.006-6.379-1.497-8.405-4.075L34.261,315.926
	c-3.635-4.636-2.823-11.341,1.813-14.976s11.341-2.823,14.976,1.813l117.333,149.333c3.629,4.641,2.809,11.344-1.832,14.973
	C164.681,468.533,162.375,469.329,160,469.334z"/>
<path style="fill:#455A64;" d="M487.467,86.848l-3.669-3.648c-37.687-36.557-97.71-36.197-134.955,0.811l-51.413,51.413
	c-36.996,37.25-37.357,97.263-0.811,134.955l3.584,3.669c1.7,2.457,4.671,3.706,7.616,3.2c2.831,0.005,5.548-1.115,7.552-3.115
	l172.181-172.181c4.189-4.143,4.226-10.896,0.083-15.085c-0.028-0.028-0.055-0.056-0.083-0.083L487.467,86.848z"/>
<g>
	<path style="fill:#FFC107;" d="M501.333,192H480c-5.891,0-10.667-4.776-10.667-10.667s4.776-10.667,10.667-10.667h21.333
		c5.891,0,10.667,4.776,10.667,10.667S507.225,192,501.333,192z"/>
	<path style="fill:#FFC107;" d="M394.667,298.667c-5.891,0-10.667-4.776-10.667-10.667v-21.333c0-5.891,4.776-10.667,10.667-10.667
		c5.891,0,10.667,4.776,10.667,10.667V288C405.333,293.891,400.558,298.667,394.667,298.667z"/>
	<path style="fill:#FFC107;" d="M480,277.334c-2.831,0.005-5.548-1.115-7.552-3.115l-21.333-21.333
		c-4.093-4.237-3.975-10.99,0.262-15.083c4.134-3.993,10.687-3.993,14.821,0l21.333,21.333c4.159,4.172,4.148,10.926-0.024,15.085
		C485.514,276.209,482.815,277.327,480,277.334z"/>
</g>
<g>
	<path style="fill:#455A64;" d="M266.667,448H96c-29.455,0-53.333,23.878-53.333,53.333c0,5.891,4.776,10.667,10.667,10.667h256
		c5.891,0,10.667-4.776,10.667-10.667C320,471.878,296.122,448,266.667,448z"/>
	<circle style="fill:#455A64;" cx="32" cy="288" r="32"/>
</g>
<g>
</g>
<g>
</g>
<g>
</g>
<g>
</g>
<g>
</g>
<g>
</g>
<g>
</g>
<g>
</g>
<g>
</g>
<g>
</g>
<g>
</g>
<g>
</g>
<g>
</g>
<g>
</g>
<g>
</g>
</svg>
